<svg xmlns="http://www.w3.org/2000/svg" width="200" height="40" fill="none"><rect width="42" height="40" x="158" fill="#2B2B2B" rx="5"/><path stroke="#fff" stroke-linecap="round" stroke-linejoin="round" d="M191 11.01a10.908 10.908 0 0 1-3.14 1.53 4.48 4.48 0 0 0-7.86 3v1a10.66 10.66 0 0 1-9-4.53s-4 9 5 13a11.64 11.64 0 0 1-7 2c9 5 20 0 20-11.5a4.532 4.532 0 0 0-.08-.83 7.716 7.716 0 0 0 2.08-3.67Z"/><rect width="42" height="40" x="79" fill="#2B2B2B" rx="5"/><g stroke="#fff" stroke-linecap="round" stroke-linejoin="round"><path d="M105 10H95a5 5 0 0 0-5 5v10a5 5 0 0 0 5 5h10a5 5 0 0 0 5-5V15a5 5 0 0 0-5-5Z"/><path d="M104 19.37a4 4 0 1 1-7.913 1.172A4 4 0 0 1 104 19.37ZM105.5 14.5h.01"/></g><rect width="42" height="40" fill="#2B2B2B" rx="5"/><path stroke="#fff" stroke-linecap="round" stroke-linejoin="round" d="M28 7h-3.818a6.423 6.423 0 0 0-4.5 1.83 6.194 6.194 0 0 0-1.864 4.42V17H14v5h3.818v10h5.091V22h3.818L28 17h-5.09v-3.75c0-.332.133-.65.372-.884.238-.234.562-.366.9-.366H28V7Z"/></svg>